<svg xmlns="http://www.w3.org/2000/svg" version="1.1" xmlns:xlink="http://www.w3.org/1999/xlink" xmlns:svgjs="http://svgjs.dev/svgjs" width="2000" height="333" viewBox="0 0 2000 333"><g transform="matrix(1,0,0,1,-1.2121212121212466,1.2587681076765023)"><svg viewBox="0 0 396 66" data-background-color="#ffffff" preserveAspectRatio="xMidYMid meet" height="333" width="2000" xmlns="http://www.w3.org/2000/svg" xmlns:xlink="http://www.w3.org/1999/xlink"><g id="tight-bounds" transform="matrix(1,0,0,1,0.2400000000000091,-0.24948557089084034)"><svg viewBox="0 0 395.52 66.49897114178168" height="66.49897114178168" width="395.52"><g><svg viewBox="0 0 395.52 66.49897114178168" height="66.49897114178168" width="395.52"><g><svg viewBox="0 0 395.52 66.49897114178168" height="66.49897114178168" width="395.52"><g id="textblocktransform"><svg viewBox="0 0 395.52 66.49897114178168" height="66.49897114178168" width="395.52" id="textblock"><g><svg viewBox="0 0 395.52 66.49897114178168" height="66.49897114178168" width="395.52"><g transform="matrix(1,0,0,1,0,0)"><svg width="395.52" viewBox="4 -35.5 214.02 35.99" height="66.49897114178168" data-palette-color="#0369a1"><path d="M23.71 0L22.05 0 7.45-25.49 7.15-27 7.15 0 4 0 4-35.01 5.64-35.01 20.24-9.5 20.56-8.01 20.56-35.01 23.71-35.01 23.71 0ZM46.92-6.86L46.92-6.86Q46.92-5.35 46.35-4 45.77-2.66 44.77-1.66 43.77-0.66 42.43-0.09 41.09 0.49 39.57 0.49L39.57 0.49 37.57 0.49Q36.06 0.49 34.71-0.09 33.37-0.66 32.37-1.66 31.37-2.66 30.8-4 30.22-5.35 30.22-6.86L30.22-6.86 30.22-18.14Q30.22-19.65 30.8-21 31.37-22.34 32.37-23.34 33.37-24.34 34.71-24.91 36.06-25.49 37.57-25.49L37.57-25.49 39.57-25.49Q41.09-25.49 42.43-24.91 43.77-24.34 44.77-23.34 45.77-22.34 46.35-21 46.92-19.65 46.92-18.14L46.92-18.14 46.92-6.86ZM43.92-6.69L43.92-18.31Q43.92-19.21 43.58-20.01 43.23-20.8 42.65-21.39 42.06-21.97 41.27-22.31 40.48-22.66 39.57-22.66L39.57-22.66 37.57-22.66Q36.67-22.66 35.87-22.31 35.08-21.97 34.49-21.39 33.91-20.8 33.57-20.01 33.23-19.21 33.23-18.31L33.23-18.31 33.23-6.69Q33.23-5.79 33.57-4.99 33.91-4.2 34.49-3.61 35.08-3.03 35.87-2.69 36.67-2.34 37.57-2.34L37.57-2.34 39.57-2.34Q40.48-2.34 41.27-2.69 42.06-3.03 42.65-3.61 43.23-4.2 43.58-4.99 43.92-5.79 43.92-6.69L43.92-6.69ZM82.32-25L73.97 0 72.33 0 66.47-18.85 66.38-20.14 66.28-18.85 60.42 0 58.76 0 50.41-25 53.46-25 59.42-6.1 59.52-4.81 59.61-6.1 65.47-25 67.28-25 73.12-6.1 73.21-4.81 73.31-6.1 79.27-25 82.32-25ZM105.02-35.01L96.04-16.75 96.04 0 92.89 0 92.89-16.7 83.83-35.01 87.22-35.01 94.43-20.46 101.63-35.01 105.02-35.01ZM123.72-6.86L123.72-6.86Q123.72-5.35 123.15-4 122.57-2.66 121.57-1.66 120.57-0.66 119.23-0.09 117.89 0.49 116.37 0.49L116.37 0.49 114.37 0.49Q112.86 0.49 111.51-0.09 110.17-0.66 109.17-1.66 108.17-2.66 107.59-4 107.02-5.35 107.02-6.86L107.02-6.86 107.02-18.14Q107.02-19.65 107.59-21 108.17-22.34 109.17-23.34 110.17-24.34 111.51-24.91 112.86-25.49 114.37-25.49L114.37-25.49 116.37-25.49Q117.89-25.49 119.23-24.91 120.57-24.34 121.57-23.34 122.57-22.34 123.15-21 123.72-19.65 123.72-18.14L123.72-18.14 123.72-6.86ZM120.72-6.69L120.72-18.31Q120.72-19.21 120.38-20.01 120.03-20.8 119.45-21.39 118.86-21.97 118.07-22.31 117.28-22.66 116.37-22.66L116.37-22.66 114.37-22.66Q113.47-22.66 112.67-22.31 111.88-21.97 111.29-21.39 110.71-20.8 110.37-20.01 110.02-19.21 110.02-18.31L110.02-18.31 110.02-6.69Q110.02-5.79 110.37-4.99 110.71-4.2 111.29-3.61 111.88-3.03 112.67-2.69 113.47-2.34 114.37-2.34L114.37-2.34 116.37-2.34Q117.28-2.34 118.07-2.69 118.86-3.03 119.45-3.61 120.03-4.2 120.38-4.99 120.72-5.79 120.72-6.69L120.72-6.69ZM146.42 0L145.42 0 143.76-2.54Q142.74-1.15 141.2-0.33 139.66 0.49 137.83 0.49L137.83 0.49 137.07 0.49Q135.56 0.49 134.22-0.09 132.87-0.66 131.87-1.66 130.87-2.66 130.3-4 129.72-5.35 129.72-6.86L129.72-6.86 129.72-25 132.73-25 132.73-6.69Q132.73-5.79 133.07-4.99 133.41-4.2 134-3.61 134.58-3.03 135.38-2.69 136.17-2.34 137.07-2.34L137.07-2.34 139.07-2.34Q139.98-2.34 140.77-2.69 141.56-3.03 142.15-3.61 142.74-4.2 143.08-4.99 143.42-5.79 143.42-6.69L143.42-6.69 143.42-25 146.42-25 146.42 0ZM172.62-8.11L172.62-8.11Q172.62-6.32 171.95-4.76 171.27-3.2 170.1-2.03 168.93-0.85 167.37-0.18 165.81 0.49 164.02 0.49L164.02 0.49 161.53 0.49Q159.75 0.49 158.18-0.18 156.6-0.85 155.43-2.03 154.26-3.2 153.59-4.76 152.91-6.32 152.91-8.11L152.91-8.11 152.91-26.9Q152.91-28.69 153.59-30.25 154.26-31.81 155.43-32.98 156.6-34.16 158.18-34.83 159.75-35.5 161.53-35.5L161.53-35.5 164.02-35.5Q165.81-35.5 167.37-34.83 168.93-34.16 170.1-32.98 171.27-31.81 171.95-30.25 172.62-28.69 172.62-26.9L172.62-26.9 172.62-25.49 169.47-25 169.47-26.9Q169.47-28.08 169.03-29.09 168.59-30.1 167.83-30.86 167.07-31.62 166.06-32.06 165.05-32.5 163.88-32.5L163.88-32.5 161.68-32.5Q160.51-32.5 159.49-32.06 158.48-31.62 157.71-30.86 156.94-30.1 156.5-29.09 156.06-28.08 156.06-26.9L156.06-26.9 156.06-8.11Q156.06-6.93 156.5-5.92 156.94-4.91 157.71-4.14 158.48-3.37 159.49-2.93 160.51-2.49 161.68-2.49L161.68-2.49 163.88-2.49Q165.05-2.49 166.06-2.93 167.07-3.37 167.83-4.14 168.59-4.91 169.03-5.92 169.47-6.93 169.47-8.11L169.47-8.11 169.47-10.01 172.62-9.5 172.62-8.11ZM195.32 0L194.32 0 192.66-2.49Q191.63-1.15 190.09-0.33 188.56 0.49 186.73 0.49L186.73 0.49 185.97 0.49Q184.46 0.49 183.11-0.09 181.77-0.66 180.77-1.66 179.77-2.66 179.19-4 178.62-5.35 178.62-6.86L178.62-6.86 178.62-7.1Q178.62-8.62 179.19-9.96 179.77-11.3 180.77-12.3 181.77-13.31 183.11-13.88 184.46-14.45 185.97-14.45L185.97-14.45 192.32-14.45 192.32-18.31Q192.32-19.21 191.97-20.01 191.63-20.8 191.05-21.39 190.46-21.97 189.67-22.31 188.87-22.66 187.97-22.66L187.97-22.66 186.21-22.66Q185.31-22.66 184.52-22.31 183.72-21.97 183.14-21.39 182.55-20.8 182.21-20.01 181.87-19.21 181.87-18.31L181.87-18.31 181.87-17.41 178.86-17.9 178.86-18.14Q178.86-19.65 179.44-21 180.01-22.34 181.01-23.34 182.01-24.34 183.36-24.91 184.7-25.49 186.21-25.49L186.21-25.49 187.97-25.49Q189.48-25.49 190.83-24.91 192.17-24.34 193.17-23.34 194.17-22.34 194.75-21 195.32-19.65 195.32-18.14L195.32-18.14 195.32 0ZM192.32-6.69L192.32-12.11 185.97-12.11Q185.07-12.11 184.27-11.77 183.48-11.43 182.89-10.83 182.31-10.23 181.96-9.44 181.62-8.64 181.62-7.74L181.62-7.74 181.62-6.69Q181.62-5.79 181.96-4.99 182.31-4.2 182.89-3.61 183.48-3.03 184.27-2.69 185.07-2.34 185.97-2.34L185.97-2.34 187.97-2.34Q188.87-2.34 189.67-2.69 190.46-3.03 191.05-3.61 191.63-4.2 191.97-4.99 192.32-5.79 192.32-6.69L192.32-6.69ZM218.02 0L215.02 0 215.02-18.31Q215.02-19.21 214.68-20.01 214.34-20.8 213.75-21.39 213.16-21.97 212.37-22.31 211.58-22.66 210.67-22.66L210.67-22.66 208.67-22.66Q207.77-22.66 206.97-22.31 206.18-21.97 205.6-21.39 205.01-20.8 204.67-20.01 204.33-19.21 204.33-18.31L204.33-18.31 204.33 0 201.32 0 201.32-25 202.32-25 203.96-22.46Q204.98-23.85 206.54-24.67 208.09-25.49 209.92-25.49L209.92-25.49 210.67-25.49Q212.19-25.49 213.53-24.91 214.87-24.34 215.87-23.34 216.87-22.34 217.45-21 218.02-19.65 218.02-18.14L218.02-18.14 218.02 0Z" opacity="1" transform="matrix(1,0,0,1,0,0)" fill="#0369a1" class="wordmark-text-0" data-fill-palette-color="primary" id="text-0"></path></svg></g></svg></g></svg></g></svg></g></svg></g><defs></defs></svg><rect width="395.52" height="66.49897114178168" fill="none" stroke="none" visibility="hidden"></rect></g></svg></g></svg>